{
  "accessors": [
    {
      "bufferView": 2,
      "componentType": 5126,
      "count": 14774,
      "max": [
        13.130979537963867,
        6.723021030426025,
        13.271539688110352
      ],
      "min": [
        -11.539258003234863,
        0.16998302936553955,
        -10.367209434509277
      ],
      "type": "VEC3"
    },
    {
      "bufferView": 2,
      "byteOffset": 177288,
      "componentType": 5126,
      "count": 14774,
      "max": [
        0.9997467398643494,
        0.9999549984931946,
        0.9999657273292542
      ],
      "min": [
        -0.9992068409919739,
        -0.999999463558197,
        -0.9999600052833557
      ],
      "type": "VEC3"
    },
    {
      "bufferView": 3,
      "componentType": 5126,
      "count": 14774,
      "max": [
        0.9999984502792358,
        0.9996398091316223,
        0.9999594688415527,
        1.0
      ],
      "min": [
        -0.9999465346336365,
        -0.9999449849128723,
        -0.9999845623970032,
        -1.0
      ],
      "type": "VEC4"
    },
    {
      "bufferView": 1,
      "componentType": 5126,
      "count": 14774,
      "max": [
        0.9989569187164307,
        0.9999129772186279
      ],
      "min": [
        2.7824444259749725e-05,
        6.42611994408071e-05
      ],
      "type": "VEC2"
    },
    {
      "bufferView": 0,
      "componentType": 5125,
      "count": 56760,
      "type": "SCALAR"
    }
  ],
  "asset": {
    "extras": {
      "author": "Samad.Ahmed (https://sketchfab.com/Samad.Ahmed)",
      "license": "CC-BY-4.0 (http://creativecommons.org/licenses/by/4.0/)",
      "source": "https://sketchfab.com/3d-models/slippers-d550b7879c1d436cb9462673ab9b42b5",
      "title": "Slippers"
    },
    "generator": "Sketchfab-15.53.0",
    "version": "2.0"
  },
  "bufferViews": [
    {
      "buffer": 0,
      "byteLength": 227040,
      "name": "floatBufferViews",
      "target": 34963
    },
    {
      "buffer": 0,
      "byteLength": 118192,
      "byteOffset": 227040,
      "byteStride": 8,
      "name": "floatBufferViews",
      "target": 34962
    },
    {
      "buffer": 0,
      "byteLength": 354576,
      "byteOffset": 345232,
      "byteStride": 12,
      "name": "floatBufferViews",
      "target": 34962
    },
    {
      "buffer": 0,
      "byteLength": 236384,
      "byteOffset": 699808,
      "byteStride": 16,
      "name": "floatBufferViews",
      "target": 34962
    }
  ],
  "buffers": [
    {
      "byteLength": 936192,
      "uri": "gltf.bin"
    }
  ],
  "extensionsUsed": [
    "KHR_materials_specular"
  ],
  "images": [
    {
      "uri": "textures/DModel4nil1_baseColor.jpeg"
    },
    {
      "uri": "textures/DModel4nil1_metallicRoughness.png"
    },
    {
      "uri": "textures/DModel4nil1_normal.png"
    }
  ],
  "materials": [
    {
      "extensions": {
        "KHR_materials_specular": {
          "specularColorFactor": [
            1.0,
            1.0,
            1.0
          ],
          "specularFactor": 0.40685838280649994
        }
      },
      "name": "DModel4nil1",
      "normalTexture": {
        "index": 2
      },
      "occlusionTexture": {
        "index": 1
      },
      "pbrMetallicRoughness": {
        "baseColorTexture": {
          "index": 0
        },
        "metallicFactor": 0.19961965598371345,
        "metallicRoughnessTexture": {
          "index": 1
        },
        "roughnessFactor": 0.6750496763418707
      }
    }
  ],
  "meshes": [
    {
      "name": "submesh32_DModel4:nil1_0",
      "primitives": [
        {
          "attributes": {
            "NORMAL": 1,
            "POSITION": 0,
            "TANGENT": 2,
            "TEXCOORD_0": 3
          },
          "indices": 4,
          "material": 0,
          "mode": 4
        }
      ]
    }
  ],
  "nodes": [
    {
      "children": [
        1
      ],
      "matrix": [
        1.0,
        0.0,
        0.0,
        0.0,
        0.0,
        2.220446049250313e-16,
        -1.0,
        0.0,
        0.0,
        1.0,
        2.220446049250313e-16,
        0.0,
        0.0,
        0.0,
        0.0,
        1.0
      ],
      "name": "Sketchfab_model"
    },
    {
      "children": [
        2
      ],
      "matrix": [
        0.009999999776482582,
        0.0,
        0.0,
        0.0,
        0.0,
        0.0,
        0.009999999776482582,
        0.0,
        0.0,
        -0.009999999776482582,
        0.0,
        0.0,
        0.0,
        0.0,
        0.0,
        1.0
      ],
      "name": "829ee332d74f431a81d57cacb2764e86.fbx"
    },
    {
      "children": [
        3
      ],
      "name": "RootNode"
    },
    {
      "children": [
        4
      ],
      "matrix": [
        1.0,
        0.0,
        0.0,
        0.0,
        0.0,
        1.0,
        0.0,
        0.0,
        0.0,
        0.0,
        1.0,
        0.0,
        -1.3284034729003906,
        -0.24614174664020538,
        -1.0169285535812378,
        1.0
      ],
      "name": "submesh32"
    },
    {
      "mesh": 0,
      "name": "submesh32_DModel4:nil1_0"
    }
  ],
  "samplers": [
    {
      "magFilter": 9729,
      "minFilter": 9987,
      "wrapS": 10497,
      "wrapT": 10497
    }
  ],
  "scene": 0,
  "scenes": [
    {
      "name": "Sketchfab_Scene",
      "nodes": [
        0
      ]
    }
  ],
  "textures": [
    {
      "sampler": 0,
      "source": 0
    },
    {
      "sampler": 0,
      "source": 1
    },
    {
      "sampler": 0,
      "source": 2
    }
  ]
}
